<svg width="100" height="100" viewBox="0 0 100 100" fill="none" xmlns="http://www.w3.org/2000/svg">
<path d="M33.3333 29.1667V12.5M66.6667 29.1667V12.5M29.1667 45.8333H70.8333M20.8333 87.5H79.1667C81.3768 87.5 83.4964 86.622 85.0592 85.0592C86.622 83.4964 87.5 81.3768 87.5 79.1667V29.1667C87.5 26.9565 86.622 24.8369 85.0592 23.2741C83.4964 21.7113 81.3768 20.8333 79.1667 20.8333H20.8333C18.6232 20.8333 16.5036 21.7113 14.9408 23.2741C13.378 24.8369 12.5 26.9565 12.5 29.1667V79.1667C12.5 81.3768 13.378 83.4964 14.9408 85.0592C16.5036 86.622 18.6232 87.5 20.8333 87.5Z" stroke="#6B7280" stroke-width="5" stroke-linecap="round" stroke-linejoin="round"/>
</svg>
