<svg width="100" height="100" viewBox="0 0 100 100" fill="none" xmlns="http://www.w3.org/2000/svg">
<path d="M87.5812 28.0119C86.092 27.2407 84.2948 27.3425 82.9195 28.307L68.4633 38.4377C67.4438 39.1495 67.1977 40.5541 67.9095 41.5708C68.4984 42.5891 70.0172 42.8281 71.0438 42.125L85.5 32V67.9859L71.0438 57.875C70.022 57.1653 68.6222 57.4092 67.9106 58.4288C67.1988 59.4461 67.4449 60.8503 68.4644 61.5619L82.9207 71.6841C83.6941 72.2247 84.5997 72.4978 85.5053 72.4978C86.2151 72.4978 86.9285 72.3286 87.5838 71.988C89.0719 71.2063 90 69.5609 90 67.8734V32C90 30.3125 89.0719 28.7937 87.5812 28.0119ZM54 23H18C13.0289 23 9 27.0289 9 32V68C9 72.9711 13.0289 77 18 77H54C58.9711 77 63 72.9711 63 68V32C63 27.0289 58.9641 23 54 23ZM58.5 68C58.5 70.4806 56.4806 72.5 54 72.5H18C15.5194 72.5 13.5 70.4806 13.5 68V32C13.5 29.5194 15.5194 27.5 18 27.5H54C56.4806 27.5 58.5 29.5194 58.5 32V68Z" fill="#6B7280"/>
</svg>
