<svg width="100" height="100" viewBox="0 0 100 100" fill="none" xmlns="http://www.w3.org/2000/svg">
<path d="M73.9042 67.9029L56.225 85.5821C55.4519 86.356 54.5338 86.97 53.5232 87.3889C52.5126 87.8078 51.4294 88.0234 50.3354 88.0234C49.2415 88.0234 48.1583 87.8078 47.1477 87.3889C46.1371 86.97 45.219 86.356 44.4459 85.5821L26.7625 67.9029C22.1009 63.2411 18.9264 57.3017 17.6404 50.8357C16.3543 44.3697 17.0146 37.6676 19.5375 31.5768C22.0605 25.4861 26.3329 20.2802 31.8145 16.6176C37.2961 12.9549 43.7407 11 50.3334 11C56.926 11 63.3706 12.9549 68.8522 16.6176C74.3338 20.2802 78.6062 25.4861 81.1292 31.5768C83.6521 37.6676 84.3124 44.3697 83.0263 50.8357C81.7403 57.3017 78.5658 63.2411 73.9042 67.9029V67.9029Z" stroke="#6B7280" stroke-width="5" stroke-linecap="round" stroke-linejoin="round"/>
<path d="M62.8335 44.3321C62.8335 47.6473 61.5165 50.8268 59.1723 53.171C56.8281 55.5152 53.6487 56.8321 50.3335 56.8321C47.0183 56.8321 43.8389 55.5152 41.4947 53.171C39.1505 50.8268 37.8335 47.6473 37.8335 44.3321C37.8335 41.0169 39.1505 37.8375 41.4947 35.4933C43.8389 33.1491 47.0183 31.8321 50.3335 31.8321C53.6487 31.8321 56.8281 33.1491 59.1723 35.4933C61.5165 37.8375 62.8335 41.0169 62.8335 44.3321V44.3321Z" stroke="#6B7280" stroke-width="5" stroke-linecap="round" stroke-linejoin="round"/>
</svg>
